# This file uses centimeters as units for non-parametric coordinates.

mtllib roof_no_bottom.mtl
g default
v -2.750000 0.000000 0.500000
v 2.750000 1.773136 0.500000
v -2.750000 0.217288 0.500000
v 2.750000 2.000000 0.500000
v -2.750000 0.217288 -0.500000
v 2.750000 2.000000 -0.500000
v -2.750000 0.000000 -0.500000
v 2.750000 1.773136 -0.500000
v -2.750000 0.000000 0.500000
v 2.750000 1.773136 0.500000
v -2.750000 0.217288 0.500000
v 2.750000 2.000000 0.500000
v -2.750000 0.217288 -0.500000
v 2.750000 2.000000 -0.500000
v -2.750000 0.000000 -0.500000
v 2.750000 1.773136 -0.500000
vt 0.263090 0.592101
vt 0.263090 0.501900
vt 0.283554 0.501900
vt 0.283554 0.592101
vt 0.236787 0.592101
vt 0.236787 0.501900
vt 0.257250 0.501900
vt 0.257250 0.592101
vt 0.230947 0.501900
vt 0.230947 0.592101
vt 0.211347 0.592101
vt 0.211347 0.501900
vt 0.189453 0.498100
vt 0.189453 0.001992
vt 0.279654 0.001992
vt 0.279654 0.498100
vt 0.473292 0.498100
vt 0.473292 0.001992
vt 0.563494 0.001992
vt 0.563494 0.498100
vt 0.757132 0.498100
vt 0.757132 0.001992
vt 0.847333 0.001992
vt 0.847333 0.498100
vt 0.673535 0.998008
vt 0.673535 0.501900
vt 0.763736 0.501900
vt 0.763736 0.998008
vt 0.001896 0.498100
vt 0.161836 0.001992
vt 0.182299 0.001992
vt 0.021496 0.498100
vt 0.446724 0.498100
vt 0.285921 0.001992
vt 0.306385 0.001992
vt 0.466324 0.498100
vt 0.569761 0.498100
vt 0.729700 0.001992
vt 0.750164 0.001992
vt 0.589360 0.498100
vt 0.930380 0.998008
vt 0.769576 0.501900
vt 0.790040 0.501900
vt 0.949979 0.998008
vn 0.000000 0.000000 1.000000
vn 0.000000 0.000000 1.000000
vn 0.000000 0.000000 1.000000
vn 0.000000 0.000000 1.000000
vn -0.308337 0.951277 0.000000
vn -0.308337 0.951277 0.000000
vn -0.308337 0.951277 0.000000
vn -0.308337 0.951277 0.000000
vn 0.000000 0.000000 -1.000000
vn 0.000000 0.000000 -1.000000
vn 0.000000 0.000000 -1.000000
vn 0.000000 0.000000 -1.000000
vn 0.306837 -0.951762 0.000000
vn 0.306837 -0.951762 0.000000
vn 0.306837 -0.951762 0.000000
vn 0.306837 -0.951762 0.000000
vn 1.000000 0.000000 0.000000
vn 1.000000 0.000000 0.000000
vn 1.000000 0.000000 0.000000
vn 1.000000 0.000000 0.000000
vn 0.000000 0.000000 1.000000
vn 0.000000 0.000000 1.000000
vn 0.000000 0.000000 1.000000
vn 0.000000 0.000000 1.000000
vn -0.308337 0.951277 0.000000
vn -0.308337 0.951277 0.000000
vn -0.308337 0.951277 0.000000
vn -0.308337 0.951277 0.000000
vn 0.000000 0.000000 -1.000000
vn 0.000000 0.000000 -1.000000
vn 0.000000 0.000000 -1.000000
vn 0.000000 0.000000 -1.000000
vn 0.306837 -0.951762 0.000000
vn 0.306837 -0.951762 0.000000
vn 0.306837 -0.951762 0.000000
vn 0.306837 -0.951762 0.000000
vn 1.000000 0.000000 0.000000
vn 1.000000 0.000000 0.000000
vn 1.000000 0.000000 0.000000
vn 1.000000 0.000000 0.000000
vn -1.000000 0.000000 0.000000
vn -1.000000 0.000000 0.000000
vn -1.000000 0.000000 0.000000
vn -1.000000 0.000000 0.000000
s off
g polySurface4
usemtl initialShadingGroup
f 1/29/1 2/30/2 4/31/3 3/32/4
f 3/13/5 4/14/6 6/15/7 5/16/8
f 5/33/9 6/34/10 8/35/11 7/36/12
f 7/17/13 8/18/14 2/19/15 1/20/16
f 2/1/17 8/2/18 6/3/19 4/4/20
f 9/37/21 10/38/22 12/39/23 11/40/24
f 11/21/25 12/22/26 14/23/27 13/24/28
f 13/41/29 14/42/30 16/43/31 15/44/32
f 15/25/33 16/26/34 10/27/35 9/28/36
f 10/5/37 16/6/38 14/7/39 12/8/40
f 3/9/41 5/10/42 7/11/43 1/12/44
