# This file uses centimeters as units for non-parametric coordinates.

mtllib sign_helment.mtl
g default
v -1.000000 1.000000 0.089732
v 1.000000 1.000000 0.089732
v -1.000000 2.000000 0.089732
v 1.000000 2.000000 0.089732
v -1.000000 2.000000 -0.089732
v 1.000000 2.000000 -0.089732
v -1.000000 1.000000 -0.089732
v 1.000000 1.000000 -0.089732
v -0.141592 1.000000 -0.044789
v 0.141592 1.000000 -0.044789
v 0.141592 1.000000 0.044789
v -0.141592 1.000000 0.044789
v -0.141592 0.000000 -0.044789
v 0.141592 0.000000 -0.044789
v 0.141592 0.000000 0.044789
v -0.141592 0.000000 0.044789
vt 0.582757 0.931003
vt 0.179216 0.931003
vt 0.179216 0.867607
vt 0.582757 0.867606
vt 0.987982 0.930610
vt 0.584441 0.930610
vt 0.584441 0.867213
vt 0.987982 0.867213
vt 0.057919 0.998008
vt 0.003732 0.998008
vt 0.003732 0.800286
vt 0.057919 0.800286
vt 0.109709 0.998008
vt 0.058415 0.998008
vt 0.058415 0.800286
vt 0.109709 0.800286
vt 0.177838 0.940722
vt 0.991399 0.940722
vt 0.991399 0.997065
vt 0.177838 0.997065
vt 0.116149 0.841119
vt 0.167380 0.841119
vt 0.167380 0.956833
vt 0.116149 0.956833
vt 0.002948 0.794388
vt 0.002948 0.758147
vt 0.120502 0.773702
vt 0.120502 0.778833
vt 0.472352 0.758147
vt 0.354798 0.773702
vt 0.472352 0.794388
vt 0.354798 0.778833
vt 0.730685 0.374621
vt 0.005463 0.374621
vt 0.005463 0.002071
vt 0.730685 0.002071
vt 0.736009 0.748565
vt 0.005081 0.748565
vt 0.005081 0.378730
vt 0.736009 0.378730
vt 0.113209 0.801139
vt 0.169201 0.801139
vt 0.169201 0.998861
vt 0.113209 0.998861
vt 0.169433 0.998008
vt 0.113442 0.998008
vt 0.113442 0.800286
vt 0.169433 0.800286
vn 0.000000 0.000000 1.000000
vn 0.000000 0.000000 1.000000
vn 0.000000 0.000000 1.000000
vn 0.000000 0.000000 1.000000
vn 0.000000 1.000000 0.000000
vn 0.000000 1.000000 0.000000
vn 0.000000 1.000000 0.000000
vn 0.000000 1.000000 0.000000
vn 0.000000 -0.000000 -1.000000
vn 0.000000 -0.000000 -1.000000
vn 0.000000 -0.000000 -1.000000
vn 0.000000 -0.000000 -1.000000
vn 0.000000 -1.000000 0.000000
vn 0.000000 -1.000000 0.000000
vn 0.000000 -1.000000 0.000000
vn 0.000000 -1.000000 0.000000
vn 1.000000 0.000000 0.000000
vn 1.000000 0.000000 0.000000
vn 1.000000 0.000000 0.000000
vn 1.000000 0.000000 0.000000
vn -1.000000 0.000000 0.000000
vn -1.000000 0.000000 0.000000
vn -1.000000 0.000000 0.000000
vn -1.000000 0.000000 0.000000
vn 0.000000 -1.000000 0.000000
vn 0.000000 -1.000000 0.000000
vn 0.000000 -1.000000 0.000000
vn 0.000000 -1.000000 0.000000
vn 0.000000 -1.000000 0.000000
vn 0.000000 -1.000000 0.000000
vn 0.000000 -1.000000 0.000000
vn 0.000000 -1.000000 0.000000
vn 0.000000 -1.000000 0.000000
vn 0.000000 -1.000000 0.000000
vn 0.000000 -1.000000 0.000000
vn 0.000000 -1.000000 0.000000
vn 0.000000 -1.000000 0.000000
vn 0.000000 -1.000000 0.000000
vn 0.000000 -1.000000 0.000000
vn 0.000000 -1.000000 0.000000
vn 0.000000 0.000000 -1.000000
vn 0.000000 0.000000 -1.000000
vn 0.000000 0.000000 -1.000000
vn 0.000000 0.000000 -1.000000
vn 1.000000 0.000000 0.000000
vn 1.000000 0.000000 0.000000
vn 1.000000 0.000000 0.000000
vn 1.000000 0.000000 0.000000
vn 0.000000 0.000000 1.000000
vn 0.000000 0.000000 1.000000
vn 0.000000 0.000000 1.000000
vn 0.000000 0.000000 1.000000
vn -1.000000 0.000000 0.000000
vn -1.000000 0.000000 0.000000
vn -1.000000 0.000000 0.000000
vn -1.000000 0.000000 0.000000
s off
g pCube1
usemtl initialShadingGroup
f 1/33/1 2/34/2 4/35/3 3/36/4
f 3/17/5 4/18/6 6/19/7 5/20/8
f 5/37/9 6/38/10 8/39/11 7/40/12
f 13/21/13 14/22/14 15/23/15 16/24/16
f 2/1/17 8/2/18 6/3/19 4/4/20
f 7/5/21 1/6/22 3/7/23 5/8/24
f 7/25/25 8/26/26 10/27/27 9/28/28
f 8/26/29 2/29/30 11/30/31 10/27/32
f 2/29/33 1/31/34 12/32/35 11/30/36
f 1/31/37 7/25/38 9/28/39 12/32/40
f 9/41/41 10/42/42 14/43/43 13/44/44
f 10/9/45 11/10/46 15/11/47 14/12/48
f 11/45/49 12/46/50 16/47/51 15/48/52
f 12/13/53 9/14/54 13/15/55 16/16/56
