# This file uses centimeters as units for non-parametric coordinates.

mtllib vechile_police.mtl
g default
v -0.522823 0.375012 0.824902
v 2.500000 0.375012 0.824902
v -0.072217 1.868428 0.824902
v 1.902024 1.868428 0.824902
v -0.072216 1.868428 -1.250000
v 1.902025 1.868428 -1.250000
v -0.522822 0.375012 -1.250000
v 2.500001 0.375012 -1.250000
v 2.669762 1.357186 -1.250000
v -0.522822 1.080947 -1.250000
v -0.522823 1.080947 0.824902
v 2.669761 1.357186 0.824902
v 3.444651 0.375012 -1.250000
v 3.444650 0.375012 0.824902
v 3.444651 1.201252 -1.250000
v 3.444650 1.201252 0.824902
v 0.579907 0.270697 0.926440
v 0.052041 0.012144 0.926440
v -0.356977 0.434276 0.926440
v -0.081899 0.953722 0.926440
v 0.497127 0.852624 0.926440
v 0.579907 0.270697 -1.332414
v 0.052041 0.012144 -1.332414
v -0.356977 0.434276 -1.332414
v -0.081899 0.953722 -1.332414
v 0.497127 0.852624 -1.332414
v 0.138040 0.504693 0.926440
v 0.138040 0.504693 -1.332414
v 2.850927 -0.019504 0.926440
v 2.291910 0.162131 0.926440
v 2.291910 0.749917 0.926440
v 2.850927 0.931552 0.926440
v 3.196418 0.456024 0.926440
v 2.850927 -0.019504 -1.332414
v 2.291910 0.162131 -1.332414
v 2.291910 0.749917 -1.332414
v 2.850927 0.931552 -1.332414
v 3.196418 0.456024 -1.332414
v 2.696418 0.456024 0.926440
v 2.696418 0.456024 -1.332414
v 1.152778 1.868428 0.177773
v 1.152778 1.868428 -0.602871
v 0.677030 1.868428 -0.602871
v 0.677030 1.868428 0.177773
v 1.152778 2.112134 0.177773
v 1.152778 2.112134 -0.602871
v 0.677030 2.112134 -0.602871
v 0.677030 2.112134 0.177773
vt 0.397350 0.659998
vt 0.421672 0.659998
vt 0.421672 0.673104
vt 0.397350 0.673104
vt 0.402087 0.750843
vt 0.827943 0.750843
vt 0.827943 0.979763
vt 0.002383 0.609036
vt 0.355626 0.609036
vt 0.355626 0.999451
vt 0.002383 0.999451
vt 0.462422 0.569659
vt 0.677332 0.569659
vt 0.677332 0.699483
vt 0.462422 0.699483
vt 0.625000 0.000000
vt 0.875000 0.000000
vt 0.875000 0.000000
vt 0.625000 0.000000
vt 0.681908 0.554723
vt 0.460713 0.554723
vt 0.460713 0.419543
vt 0.681908 0.419543
vt 0.002383 0.443101
vt 0.355626 0.443101
vt 0.048691 0.291000
vt 0.064834 0.291000
vt 0.064834 0.412378
vt 0.048691 0.412378
vt 0.080978 0.291000
vt 0.080978 0.412378
vt 0.097121 0.291000
vt 0.097121 0.412378
vt 0.113264 0.291000
vt 0.113264 0.412378
vt 0.129408 0.291000
vt 0.129408 0.412378
vt 0.028468 0.305833
vt 0.108702 0.279763
vt 0.086526 0.345144
vt 0.028468 0.390196
vt 0.108702 0.416266
vt 0.158290 0.348015
vt 0.109058 0.415549
vt 0.029846 0.389811
vt 0.087165 0.345332
vt 0.029846 0.306522
vt 0.109059 0.280784
vt 0.158015 0.348166
vt 0.048357 0.292000
vt 0.064634 0.292000
vt 0.064634 0.414383
vt 0.048357 0.414383
vt 0.080911 0.292000
vt 0.080911 0.414383
vt 0.097188 0.292000
vt 0.097188 0.414383
vt 0.113465 0.292000
vt 0.113465 0.414383
vt 0.129742 0.292000
vt 0.129742 0.414383
vt 0.027881 0.305078
vt 0.107523 0.279201
vt 0.085510 0.344099
vt 0.027881 0.388819
vt 0.107523 0.414696
vt 0.156744 0.346948
vt 0.109960 0.415871
vt 0.028723 0.389476
vt 0.087507 0.343861
vt 0.028723 0.304059
vt 0.109960 0.277663
vt 0.160167 0.346767
vt 0.998008 0.182963
vt 0.196524 0.252311
vt 0.389261 0.380656
vt 0.884885 0.380656
vt 0.998008 0.005741
vt 0.239142 0.005741
vt 0.001992 0.005741
vt 0.001992 0.213165
vt 0.402087 0.979763
vt 0.999384 0.410207
vt 0.999384 0.720965
vt 0.887169 0.624045
vt 0.887169 0.507128
vt 0.703702 0.720965
vt 0.815917 0.624045
vt 0.703702 0.410207
vt 0.815917 0.507128
vt 0.437965 0.471983
vt 0.437965 0.608129
vt 0.377169 0.608129
vt 0.377169 0.471983
vt 0.375694 0.608819
vt 0.375694 0.474161
vt 0.439931 0.474161
vt 0.439931 0.608819
vt 0.438984 0.472352
vt 0.438984 0.608800
vt 0.378216 0.608800
vt 0.378216 0.472352
vt 0.429731 0.561195
vt 0.429731 0.595651
vt 0.389755 0.595651
vt 0.389755 0.561195
vt 0.386479 0.517852
vt 0.386479 0.479896
vt 0.430933 0.479896
vt 0.430933 0.517852
vt 0.884885 0.381896
vt 0.389261 0.381896
vt 0.196524 0.253551
vt 0.998008 0.184202
vt 0.239142 0.006981
vt 0.998008 0.006980
vt 0.001992 0.214404
vt 0.001992 0.006981
vn 0.000000 0.000000 1.000000
vn 0.000000 0.000000 1.000000
vn 0.000000 0.000000 1.000000
vn 0.000000 0.000000 1.000000
vn 0.000000 0.000000 -1.000000
vn 0.000000 0.000000 -1.000000
vn 0.000000 0.000000 -1.000000
vn 0.000000 0.000000 -1.000000
vn 0.000000 -1.000000 0.000000
vn 0.000000 -1.000000 0.000000
vn 0.000000 -1.000000 0.000000
vn 0.000000 -1.000000 0.000000
vn 0.554263 0.832342 0.000000
vn 0.554263 0.832342 0.000000
vn 0.554263 0.832342 0.000000
vn 0.554263 0.832342 0.000000
vn -0.867950 0.496651 -0.000000
vn -0.867950 0.496651 -0.000000
vn -0.867950 0.496651 -0.000000
vn -0.867950 0.496651 -0.000000
vn 0.000000 0.000000 -1.000000
vn 0.000000 0.000000 -1.000000
vn 0.000000 0.000000 1.000000
vn 0.000000 0.000000 1.000000
vn 1.000000 0.000000 0.000001
vn 1.000000 0.000000 0.000001
vn 1.000000 0.000000 0.000001
vn 1.000000 0.000000 0.000001
vn 0.000000 -1.000000 0.000000
vn 0.000000 -1.000000 0.000000
vn 0.000000 -1.000000 0.000000
vn 0.000000 -1.000000 0.000000
vn 0.000000 0.000000 -1.000000
vn 0.000000 0.000000 -1.000000
vn 0.000000 0.000000 -1.000000
vn 0.000000 0.000000 -1.000000
vn 0.197279 0.980347 0.000000
vn 0.197280 0.980347 0.000000
vn 0.197279 0.980347 0.000000
vn 0.197280 0.980347 0.000000
vn 0.000000 0.000000 1.000000
vn 0.000000 0.000000 1.000000
vn 0.000000 0.000000 1.000000
vn 0.000000 0.000000 1.000000
vn -1.000000 0.000000 -0.000001
vn -1.000000 0.000000 -0.000001
vn -1.000000 0.000000 -0.000001
vn -1.000000 0.000000 -0.000001
vn 0.439877 -0.898058 0.000000
vn 0.439877 -0.898058 0.000000
vn 0.439877 -0.898058 0.000000
vn 0.439877 -0.898058 0.000000
vn -0.718174 -0.695863 0.000000
vn -0.718174 -0.695863 0.000000
vn -0.718174 -0.695863 0.000000
vn -0.718174 -0.695863 0.000000
vn -0.883733 0.467991 0.000000
vn -0.883733 0.467991 0.000000
vn -0.883733 0.467991 0.000000
vn -0.883733 0.467991 0.000000
vn 0.171997 0.985097 0.000000
vn 0.171997 0.985097 0.000000
vn 0.171997 0.985097 0.000000
vn 0.171997 0.985097 0.000000
vn 0.990033 0.140833 0.000000
vn 0.990033 0.140833 0.000000
vn 0.990033 0.140833 0.000000
vn 0.990033 0.140833 0.000000
vn 0.000000 0.000000 1.000000
vn 0.000000 0.000000 1.000000
vn 0.000000 0.000000 1.000000
vn 0.000000 0.000000 1.000000
vn 0.000000 0.000000 1.000000
vn 0.000000 0.000000 1.000000
vn -0.000000 0.000000 -1.000000
vn 0.000000 0.000000 -1.000000
vn -0.000000 0.000000 -1.000000
vn 0.000000 0.000000 -1.000000
vn 0.000000 0.000000 -1.000000
vn -0.000000 0.000000 -1.000000
vn -0.309017 -0.951057 0.000000
vn -0.309017 -0.951057 0.000000
vn -0.309017 -0.951057 0.000000
vn -0.309017 -0.951057 0.000000
vn -1.000000 0.000000 0.000000
vn -1.000000 0.000000 0.000000
vn -1.000000 0.000000 0.000000
vn -1.000000 0.000000 0.000000
vn -0.309017 0.951057 0.000000
vn -0.309017 0.951057 0.000000
vn -0.309017 0.951057 0.000000
vn -0.309017 0.951057 0.000000
vn 0.809017 0.587785 0.000000
vn 0.809017 0.587785 0.000000
vn 0.809017 0.587785 0.000000
vn 0.809017 0.587785 0.000000
vn 0.809017 -0.587785 0.000000
vn 0.809017 -0.587785 0.000000
vn 0.809017 -0.587785 0.000000
vn 0.809017 -0.587785 0.000000
vn 0.000000 0.000000 1.000000
vn 0.000000 0.000000 1.000000
vn 0.000000 0.000000 1.000000
vn 0.000000 0.000000 1.000000
vn 0.000000 0.000000 1.000000
vn 0.000000 0.000000 1.000000
vn 0.000000 0.000000 -1.000000
vn 0.000000 0.000000 -1.000000
vn 0.000000 0.000000 -1.000000
vn 0.000000 0.000000 -1.000000
vn 0.000000 0.000000 -1.000000
vn 0.000000 0.000000 -1.000000
vn -0.000001 1.000000 0.000000
vn -0.000001 1.000000 0.000000
vn -0.000001 1.000000 0.000000
vn -0.000001 1.000000 0.000000
vn 0.000000 1.000000 0.000000
vn 0.000000 1.000000 0.000000
vn 0.000000 1.000000 0.000000
vn 0.000000 1.000000 0.000000
vn 0.000000 1.000000 -0.000000
vn 0.000000 1.000000 -0.000000
vn 0.000000 1.000000 -0.000000
vn 0.000000 1.000000 -0.000000
vn 0.000000 1.000000 0.000000
vn 0.000000 1.000000 0.000000
vn 0.000000 1.000000 0.000000
vn 0.000000 1.000000 0.000000
vn 0.000000 1.000000 -0.000000
vn 0.000000 1.000000 -0.000000
vn 0.000000 1.000000 -0.000000
vn 0.000000 1.000000 -0.000000
vn 1.000000 0.000000 0.000000
vn 1.000000 0.000000 0.000000
vn 1.000000 0.000000 0.000000
vn 1.000000 0.000000 0.000000
vn 0.000000 0.000000 -1.000000
vn 0.000000 0.000000 -1.000000
vn 0.000000 0.000000 -1.000000
vn 0.000000 0.000000 -1.000000
vn -1.000000 0.000000 -0.000000
vn -1.000000 0.000000 -0.000000
vn -1.000000 0.000000 -0.000000
vn -1.000000 0.000000 -0.000000
vn 0.000000 0.000000 1.000000
vn 0.000000 0.000000 1.000000
vn 0.000000 0.000000 1.000000
vn 0.000000 0.000000 1.000000
s 1
g polySurface2
usemtl initialShadingGroup
f 11/74/1 12/75/2 4/76/3 3/77/4
s 2
f 5/111/5 6/112/6 9/113/7 10/114/8
s off
f 7/1/9 8/2/10 2/3/11 1/4/12
f 12/5/13 9/6/14 6/7/15 4/82/16
f 10/8/17 11/9/18 3/10/19 5/11/20
s 2
f 10/114/8 9/113/7 8/115/21 7/116/22
s 1
f 1/78/23 2/79/24 12/75/2 11/74/1
s off
f 14/12/25 13/13/26 15/14/27 16/15/28
f 2/16/29 8/17/30 13/18/31 14/19/32
f 8/115/33 9/113/34 15/117/35 13/118/36
f 9/20/37 12/21/38 16/22/39 15/23/40
f 12/75/41 2/79/42 14/80/43 16/81/44
f 11/9/45 10/8/46 7/24/47 1/25/48
f 17/26/49 18/27/50 23/28/51 22/29/52
f 18/27/53 19/30/54 24/31/55 23/28/56
f 19/30/57 20/32/58 25/33/59 24/31/60
f 20/32/61 21/34/62 26/35/63 25/33/64
f 21/34/65 17/36/66 22/37/67 26/35/68
s 3
f 18/38/69 17/39/70 27/40/71
f 19/41/72 18/38/69 27/40/71
f 20/42/73 19/41/72 27/40/71
f 21/43/74 20/42/73 27/40/71
f 17/39/70 21/43/74 27/40/71
s 4
f 22/44/75 23/45/76 28/46/77
f 23/45/76 24/47/78 28/46/77
f 24/47/78 25/48/79 28/46/77
f 25/48/79 26/49/80 28/46/77
f 26/49/80 22/44/75 28/46/77
s off
f 29/50/81 30/51/82 35/52/83 34/53/84
f 30/51/85 31/54/86 36/55/87 35/52/88
f 31/54/89 32/56/90 37/57/91 36/55/92
f 32/56/93 33/58/94 38/59/95 37/57/96
f 33/58/97 29/60/98 34/61/99 38/59/100
s 5
f 30/62/101 29/63/102 39/64/103
f 31/65/104 30/62/101 39/64/103
f 32/66/105 31/65/104 39/64/103
f 33/67/106 32/66/105 39/64/103
f 29/63/102 33/67/106 39/64/103
s 6
f 34/68/107 35/69/108 40/70/109
f 35/69/108 36/71/110 40/70/109
f 36/71/110 37/72/111 40/70/109
f 37/72/111 38/73/112 40/70/109
f 38/73/112 34/68/107 40/70/109
s off
f 45/99/113 46/100/114 47/101/115 48/102/116
f 4/83/117 6/84/118 42/85/119 41/86/120
f 6/84/121 5/87/122 43/88/123 42/85/124
f 5/87/125 3/89/126 44/90/127 43/88/128
f 3/89/129 4/83/130 41/86/131 44/90/132
f 41/91/133 42/92/134 46/93/135 45/94/136
f 42/103/137 43/104/138 47/105/139 46/106/140
f 43/95/141 44/96/142 48/97/143 47/98/144
f 44/107/145 41/108/146 45/109/147 48/110/148
